<svg xmlns="http://www.w3.org/2000/svg" xmlns:xlink="http://www.w3.org/1999/xlink"><defs><path id="ba" d="M0 0h55.999v56H0z"/><linearGradient id="fa" x1="27.044%" x2="79.263%" y1="0%" y2="100%"><stop offset="0%" stop-color="#6B195F"/><stop offset="100%" stop-color="#4C255B"/></linearGradient></defs><symbol id="bg-footer" viewBox="0 0 438 361">
  <g fill="#FFF" fill-opacity=".05">
    <path d="M358.1,16.8 C357.4,12 355.4,8 352,5.1 C348.6,2.2 343.4,1.3 336.5,2.4 L336.8,2.3 C327.1,3.8 320.3,7.1 316.4,12.2 C310.9,14 306.7,16.7 303.7,20.2 C299.3,25.4 297.7,32.5 299.1,41.3 C300,46.6 302.8,50.6 307.4,53.2 C310.4,54.9 314.2,55.8 318.8,55.8 C321.3,55.8 324,55.6 326.9,55.1 C335.4,53.7 341.6,49.9 345.1,43.9 C346,42.4 346.8,40.8 347.4,39.3 C350.4,37.6 352.7,35.3 354.3,32.5 C357.5,27 358.8,21.7 358.1,16.8 Z M326.2,50.3 C318.9,51.5 313.4,51.1 309.8,49 C306.4,47.1 304.5,44.4 303.9,40.5 C302.7,33.2 303.9,27.6 307.4,23.4 C308.9,21.7 310.8,20.2 313.1,18.9 C312.2,22.3 312.1,26.2 312.8,30.6 C313.6,35.1 315.8,38.5 319.9,40.8 C324,43.1 330,43.6 337.9,42.4 C338.9,42.2 339.8,42.1 340.7,41.8 C337.9,46.3 333,49.2 326.2,50.3 Z"/>
    <path d="M376.8 204.4L355.4 50.3 325.3 56.8 326.1 61.9 311.3 65.1 323.2 139.9C322.3 136.7 321.4 133.6 320.7 130.6L320.6 130.1C317.2 116.7 311.7 107.5 307.7 101.5 303.7 95.5 299.5 91.1 295.1 88.1 290.7 85.1 287.4 83.5 285.1 83.2 282.8 82.9 279.2 83.4 274.6 84.5 263.5 87.1 252.4 93.3 241.4 103.2 241.4 103.2 241.4 103.2 241.4 103.2 235.6 107 229.8 111.8 224.1 117.5 220.5 121.1 217.8 126 215.9 132.2 214.6 127.5 213.3 123.1 212.2 119L212 118.5C208.9 106.5 204.1 98.1 200.6 92.7 197.2 87.3 193.5 83.3 189.7 80.6 185.9 77.9 183 76.4 181 76.1 179 75.9 176 76.3 171.9 77.2 162.7 79.3 153.5 84.5 144.5 92.8 139.1 96.3 133.8 100.8 128.5 106.2 121.9 113.1 118.7 125.4 119.1 143.3 107.8 120.3 87.1 113.9 56.6 124.2 48.1 127.1 39.6 132 31 138.5 22.4 145 16.6 151.4 13 157.3 13.4 158.3 13.8 159.3 14.2 160.2 8.3 165.3 3.8 170.4.7 175.5L.1 176.5.5 177.6C13.2 210 25.4 238.7 37.8 265.5L58.8 310.2C81.3 358.9 82 359.2 83.3 360L84.3 360.5 103 353.3 110.9 349.6C122.8 344.1 133.8 336.7 143.4 327.7 153.4 318.2 159.5 309.5 161.9 301 162.6 298.5 163.1 296 163.3 293.6 166.4 289.2 168.6 284.9 169.8 280.8 170.8 277.3 171.3 273.9 171.3 270.4 173.6 270.9 175.9 271.2 178.2 271.2 180.7 271.2 183.2 270.9 185.7 270.4 193 268.8 198.9 266.2 203.6 262.6 208.6 258.9 212.9 253.2 216.3 245.8 216.3 245.8 216.3 245.7 216.3 245.7 216.3 245.7 216.3 245.7 216.3 245.7 218.9 242.7 221.2 238.9 223.2 234.5 223.5 233.8 223.9 233 224.1 232.2 232.7 264.3 244.1 284.7 258.6 294.2 264.8 298.3 271.6 300.3 278.8 300.3 281.7 300.3 284.7 300 287.8 299.3 295.9 297.5 302.6 294.6 308.4 290.5 314 286.5 318.8 280.5 322.7 272.7 326.2 269.1 329.2 264.5 331.8 259.2 335.5 251.6 337.7 241.1 337.8 228L367.8 216.3 366.7 208.3 376.8 204.4zM166.5 109.5C172 108.3 177.3 114.2 182.5 127.3 187.7 140.4 191.6 153.8 194.3 167.4 197 181 198.1 194.9 197.4 209 196.7 223.1 194.6 230.5 191.1 231.2 190.6 231.2 190.1 231.1 189.5 230.8L189.5 230.8C190 227.6 190.4 223.8 190.6 219.3 191.3 205.2 190.2 191 187.4 177.1 184.6 163.1 180.6 149.5 175.5 136.6 170.8 124.7 165.7 118.3 160.2 117.3 161.5 112.7 163.6 110.1 166.5 109.5zM159.4 122.1C163 122.9 167.1 128.5 171 138.4 176 151 179.9 164.4 182.7 178.1 185.4 191.6 186.5 205.3 185.8 219.1 185.6 222.3 185.4 225 185.2 227.2 182.7 224.1 180 219.3 177 212.7 171.6 200.5 167.4 186.4 164.3 170.4 160 148.2 158.4 132.2 159.4 122.1zM125.3 190.4C129.5 210.7 134.5 227 140.4 239.6 131.5 239.7 123.7 240.9 117.1 243.2 121.6 223 124.4 205.3 125.3 190.4zM104.1 263.7L103.5 266.4 107.6 265C111.5 263.7 115.8 262.7 120.6 262.1 121.3 262.3 122 262.6 122.7 263 127.6 265.3 130.9 268.6 132.9 273L133.9 274.7C135.2 279 135.2 281.4 134.8 285 134.4 288.6 133.4 291.6 132 293.9 130.9 295.7 129.3 297.4 127.4 299 127.4 298.4 127.3 297.7 127.2 296.9L126.7 294.9 125.1 291.4C122.8 286.5 119.1 282.9 113.7 280.3 111.5 279.3 109.3 278.6 106.9 278.3L101.1 265.6C102 264.8 103 264.2 104.1 263.7zM122.2 302.7C120.9 303.5 119.7 304.1 118.8 304.5L109.3 283.8C110 284 110.7 284.3 111.4 284.6 114.5 286.1 116.9 287.9 118.6 290.2L120 293.3C121.5 296.7 122.3 299.9 122.2 302.7zM67 150.2C74.5 147.6 80.2 150.5 84 158.6 94.9 181.9 96.9 209.8 89.8 242.5L86 233.1C87.1 212.2 83.7 193.4 76 177 72.1 168.7 66.8 166.2 61.9 166.2 60.9 166.2 59.8 166.3 58.8 166.5L55.6 158.7C59.2 154.5 63.1 151.6 67 150.2zM81.1 221.5L60.6 171.3C65.3 170.8 68.7 173.3 71.5 179.2 77.4 191.7 80.7 205.9 81.1 221.5zM140.1 324.1C130.9 332.8 120.4 339.8 108.9 345.1L101.2 348.7 85.4 354.8C81.9 348.6 70 322.9 63.3 308.4L42.3 263.7C30 237.5 18 209.2 5.5 177.3 8.1 173.3 11.6 169.3 16.1 165.3 26.3 191.1 37.6 217.9 50.3 245.3L71.3 290C85.9 321.5 93.6 337.7 94.7 338.3L112.4 331.5 120.2 327.9C131.8 322.5 142.4 315.4 152 306.4 153.6 304.9 155.1 303.4 156.5 301.9 154 308.8 148.4 316.2 140.1 324.1zM200.8 258.7C196.6 261.9 191.4 264.2 184.8 265.7 179.8 266.8 175.2 266.7 170.9 265.4 170.4 262.6 169.5 259.9 168.3 257.1 163.3 246.2 155.8 240.4 146 239.7 139.7 226.9 134.3 209.7 129.9 188 121.5 146.5 122.3 120.2 132.2 109.9 132.7 109.3 133.2 108.8 133.8 108.3 129.1 122.4 130.1 145.7 136.7 178.3 148.6 237.2 167.7 263.7 194.6 257.9 198.7 257 202.4 255.7 205.8 254.1 204.1 255.8 202.5 257.4 200.8 258.7zM267.7 120.7C274.1 119.3 280.2 125.8 286 140.3 291.8 154.8 296.1 169.7 299.2 184.8 302.2 199.9 303.3 215.3 302.3 231.1 301.3 246.7 298.8 255 294.7 255.9 294 255.9 293.3 255.7 292.5 255.4L292.5 255.4C293.1 251.9 293.6 247.7 293.9 242.8 294.9 227.1 293.8 211.3 290.7 195.9 287.7 180.7 283.2 165.6 277.4 151 272.1 137.9 266.5 130.9 260.3 129.8 261.7 124.4 264.2 121.4 267.7 120.7zM259.4 134.6C264.9 135.6 269.6 144.8 272.9 152.7 278.6 167 283 181.9 285.9 196.8 288.9 211.8 289.9 227.1 289 242.4 288.8 246.1 288.5 249.2 288.1 251.8 285.1 248.4 282 242.9 278.6 235.3 272.6 221.7 267.8 206 264.4 188.3 259.7 163.7 258 145.8 259.4 134.6zM305.8 286.5C300.6 290.3 294.4 292.9 287 294.5 277.5 296.6 269.1 295.1 261.5 290.1 247 280.6 235.4 257.9 226.9 222.6L226.9 222.6C227.8 217.7 228.2 212.1 228.2 205.7 228.2 193.6 226.5 179 223.2 162.2 221.9 155.2 220.3 148.6 218.6 142.5 220 132.8 222.9 125.7 227.4 121.2 228.2 120.4 229 119.6 229.9 118.8 224 134.5 224.9 160.7 232.2 197.4 245.3 263 267.1 292.2 298.4 285.4 303.4 284.3 308 282.7 312.1 280.6 310.2 283 308.1 285 305.8 286.5zM341.2 221.5L316.9 69 326.9 66.8 350.6 214.6 362.4 210 362.8 213 341.2 221.5zM437.5 195C437.1 190.7 435.3 187.4 431.9 185 428.6 182.6 423.3 181.6 416.3 182.3 410.1 182.9 405.4 185.2 402.3 189.1 396 190.3 391.3 193.4 388.3 198.3 385 203.7 383.5 209 383.8 214.2 384.1 219.5 385.9 223.9 389.2 227.3 392.2 230.3 396.4 231.8 401.7 231.8 402.7 231.8 403.7 231.8 404.7 231.7L411.8 230.2C417.4 228.7 421.6 226.2 424.6 222.6 426 220.9 427.1 218.9 427.9 216.7 435.4 212.6 438.6 205.4 437.5 195zM421 219.3C417.7 223.3 412 225.7 404.1 226.4L400.9 226.7C397.4 226.6 394.7 225.5 392.9 223.7 390.5 221.2 389.2 217.9 388.9 213.7 388.6 209.6 389.9 205.2 392.7 200.7 394.2 198.2 396.3 196.3 399.1 195.1 397.7 198.5 397.1 201.9 397.3 205.1 397.6 209.8 399.1 213.7 402 216.6 404.9 219.5 409.4 220.8 415.6 220.2L415.2 220C417.4 219.8 419.4 219.5 421.3 219 421.1 219.2 421 219.3 421 219.3zM427.5 167L422.6.4 390.6 6.8 390.9 10.9 377.3 13.7 389.9 180.7 419.2 178 418.9 167.8 427.5 167zM414.3 173.5L394.5 175.3 382.5 17.5 391.3 15.7 402.9 169.1 414.1 168.1 414.3 173.5z"/>
  </g>
</symbol><symbol id="cup" viewBox="0 0 415 463"><g data-v-60abdccc="" fill-rule="evenodd"><path data-v-60abdccc="" fill-rule="nonzero" d="M391.5 64H335V45.77c10.908-3.675 17.549-14.71 15.688-26.07C348.826 8.34 339.01.002 327.5 0h-240C75.99.002 66.174 8.34 64.312 19.7 62.452 31.06 69.092 42.095 80 45.77V64H23.5C10.526 64.011.011 74.526 0 87.5v48C.053 192.057 45.45 238.121 102 239a128.22 128.22 0 0063.88 49 23.47 23.47 0 008.78 37.25A47.42 47.42 0 00176 395v4.47c.006 9.12-7.38 16.519-16.5 16.53-17.39.017-31.483 14.11-31.5 31.5v8a7.5 7.5 0 007.5 7.5h144a7.5 7.5 0 007.5-7.5v-8c-.017-17.39-14.11-31.483-31.5-31.5-9.108-.011-16.489-7.392-16.5-16.5V395a47.42 47.42 0 001.37-69.77 23.47 23.47 0 008.78-37.23A128.22 128.22 0 00313 239c56.547-.884 101.941-46.946 102-103.5v-48c-.011-12.974-10.526-23.489-23.5-23.5zm-304-49h240a8.5 8.5 0 010 17h-240a8.5 8.5 0 110-17zM15 135.5v-48a8.51 8.51 0 018.5-8.5H80v88.5a126.76 126.76 0 0012.91 55.86c-44.431-5.41-77.854-43.1-77.91-87.86zM255.5 431c9.108.011 16.489 7.392 16.5 16.5v.5H143v-.5c.011-9.108 7.392-16.489 16.5-16.5 17.39-.017 31.483-14.11 31.5-31.5v-.5h33v.5c.017 17.39 14.11 31.483 31.5 31.5zm-26.66-47h-42.68A32.2 32.2 0 01175 359.5c0-17.95 14.55-32.5 32.5-32.5s32.5 14.55 32.5 32.5a32.2 32.2 0 01-11.16 24.5zm2.66-89a8.5 8.5 0 010 17h-48a8.5 8.5 0 010-17h48zm-24-15c-62.102-.072-112.428-50.398-112.5-112.5V47h225v120.5c-.072 62.102-50.398 112.428-112.5 112.5zM400 135.5c-.056 44.76-33.479 82.45-77.91 87.86A126.76 126.76 0 00335 167.5V79h56.5a8.51 8.51 0 018.5 8.5v48z" fill="#fff"/> <path data-v-60abdccc="" d="M295.5 112a7.5 7.5 0 00-7.5 7.5v48a80.3 80.3 0 01-29.28 62.05 7.5 7.5 0 009.56 11.56A95.25 95.25 0 00303 167.5v-48a7.5 7.5 0 00-7.5-7.5zm0-48a7.5 7.5 0 00-7.5 7.5v16a7.5 7.5 0 1015 0v-16a7.5 7.5 0 00-7.5-7.5z" fill="#fff"/></g></symbol><symbol id="games" viewBox="-0.0009701477247290313 -0.00040435791015625 211.97671508789062 211.5738525390625"><g data-v-60abdccc="" fill-rule="evenodd"><path data-v-60abdccc="" fill-rule="nonzero" d="M105.89 211.53C51.45 213.06.26 167.6 0 106.09-.25 47.56 47.85-.16 106.49 0c58 .16 106.09 48.23 105.48 106.26-.62 63.03-52.8 106.89-106.08 105.27zm99.22-104.91c.66-54.77-43.45-99.53-98.55-100-54.51-.46-98.7 43.36-99.89 98-1.12 51 39.39 97.74 94 100.65 57.93 3.07 105.08-44.3 104.44-98.65z" fill="#ffff00"/><path data-v-60abdccc="" fill-rule="nonzero" d="M105.35 197.76c-50.45-.09-91.14-40.94-91.44-91.8-.29-50.26 41.76-92.19 92.34-92.08 50 .1 91.87 41.91 91.89 91.8.02 51.16-41.35 92.16-92.79 92.08zm.75-161a69.38 69.38 0 00-69.69 69.22c-.05 37.95 31.51 69.69 69.49 69.89 37.58.2 69.33-31.32 69.43-68.94.1-39.35-30.31-70.17-69.24-70.21l.01.04zM36.35 73.99l13.5-20.21-6.06-7.56-16 23.75 8.56 4.02zm67.38-44.52v-9.29l-27.38 4.78c1.67 4 2.76 6.59 3.7 8.82l23.68-4.31zM47.67 169.84l24 15.1 3.25-8.79-20.2-12.92c-2.16 2-4.02 3.73-7.05 6.61zm-27.78-60.1c1.92 9.33 3.67 17.84 5.61 27.29l8.78-3.92c-1.76-8.29-3.33-15.68-5-23.37h-9.39zm90.78 82.5l26.87-6.19c-1.66-3.72-2.82-6.31-3.8-8.52l-23.07 5v9.71zm67.3-112.83c1.62 8.34 3.05 15.72 4.51 23.27h9.35c-1.78-9.11-3.41-17.51-5.18-26.63l-8.68 3.36zm-39.28-42.73l20.05 13.6 6.49-6.87-22.81-15.38-3.73 8.65zM25.02 76.4c-1.69 8.91-3.26 17.2-5 26.19h9.33c1.52-7.85 2.95-15.2 4.42-22.75l-8.75-3.44zm25 81.9l-13-19.07-8.73 4.33 15.17 21 6.56-6.26zm28.55 29.2l25.12 4.42v-9.52c-5.4-.78-10.53-.65-14.94-2.36-6.96-2.69-9.31-.01-10.23 7.46h.05zm91.38-23.77l14.53-22.51-8.63-3.81-12.82 19.93 6.92 6.39zm-11.48-1.89l-18.73 12.83 4.25 8.67 20.84-14.83-6.36-6.67zM54.79 49.06l19.15-12.78-4-8.43L48.23 42.2l6.56 6.86zm129.2 20.44l-13.86-20.33-7.37 5.44 12.39 18.82 8.84-3.93zm-1.83 40.27c-.85 5.19-.89 10.19-2.56 14.58-2.78 7.31.91 8.8 7.81 9.6l4.19-24.18h-9.44zm-71.35-80.14l21.93 4.49c.93-2.7 1.8-5.19 3.06-8.86l-25-4.89.01 9.26z" fill="#ffff00"/><path data-v-60abdccc="" fill-rule="nonzero" d="M137.97 114.1c1.17-.37 3.06-1.13 5-1.58 6.43-1.48 11.21.81 13.61 6.93 2.16 5.51-.82 12.39-6.13 14.08-6 1.91-11.15.63-14.42-5.38-4-7.45-11.54-10.7-21.2-9.31-9.33 1.34-18 8-19.39 15.36-.32 1.73.68 3.83 1.45 5.6 3.06 7.08 1.06 13.4-5.26 16.17a11.23 11.23 0 01-14.4-5.19c-3-6 .11-11.44 6.38-15.91a21.88 21.88 0 008-12.54c1.85-9.84-5.46-21.53-15-25.41-2.36-1-5.76 0-8.5.73-5.78 1.57-11.66-1-14-6.45-2.287-5.78.48-12.325 6.22-14.71a11.09 11.09 0 0114.3 5.42c4.43 8.58 9 10.82 18.44 9.44 8.52-1.25 14.73-6.05 18.92-13.09 1.52-2.57 1.74-6.66 1-9.66-1.57-6.4.57-12.57 6.13-14.62a11.14 11.14 0 0114.87 7c2.13 6.16-1.12 13.09-7.88 14.12-5 .76-6.39 3.52-7.49 7.28-4.16 14.46 5.79 31.62 19.35 31.72zM91.61 99.38L99.29 117l18.17-5.44c-2.36-6.75-4.73-13.52-6.95-19.9l-18.9 7.72zM70.72 86.84c-2.63-2.09-4.53-4.59-5.68-4.28-1.94.52-3.41 2.82-5.08 4.37 1.7 1.47 3.23 3.69 5.17 4.13 1.22.26 3.01-2.22 5.59-4.22zm53.36-15.4c1.89-3.63 3.83-5.71 3.68-7.63-.11-1.4-3-3.63-4.61-3.55-1.61.08-4.1 2.82-4 4.14.26 1.96 2.47 3.71 4.93 7.03v.01zm21.93 45.33c-2.13 3.17-4.36 5.05-4.3 6.86.05 1.47 2.84 2.84 4.42 4.26 1.5-1.71 3.75-3.25 4.21-5.21.29-1.22-2.14-3.07-4.33-5.92v.01zm-52.25 28.69c-3.19-2-5.13-4.21-7-4.16-1.41 0-4.13 3.39-3.79 4.5a7.28 7.28 0 004.92 4.19c1.33.21 3.12-2.3 5.87-4.54v.01z" fill="#ffff00"/><path data-v-60abdccc="" d="M99.02 45.25l3.33 3c-1.32 1.27-2.57 3.56-4 3.66-10.71.76-19.51 5.19-27.16 12.54-1.08 1-3.45.71-5.22 1 .22-1.79-.22-4.18.77-5.27 8.25-9.11 18.79-13.74 32.28-14.93z" fill="#ffff00"/></g></symbol><symbol id="icon" viewBox="0 0 37 36"><symbol xmlns="http://www.w3.org/2000/svg" viewBox="0 0 37 36" fill="none" id="Ua-8ugHDv84Cgkd6C0lsl"><circle cx="18.5" cy="18" r="14" stroke="#fff"/><circle cx="18.5" cy="18" r="10" stroke="#fff"/><path d="M18.5 4v4m0 20v4m-14-14h4m20 0h4M6.375 25l3.465-2m17.32-10 3.464-2M11.5 30.124l2-3.464m10-17.32 2-3.464m0 24.248-2-3.464m-10-17.32-2-3.464M30.625 25l-3.465-2M9.84 13l-3.464-2" stroke="#fff"/></symbol><use href="#Ua-8ugHDv84Cgkd6C0lsl"/></symbol><symbol id="icon2" viewBox="0 0 37 36"><symbol xmlns="http://www.w3.org/2000/svg" viewBox="0 0 37 36" fill="none" id="fdZQJjR0xgHb6G5-a-XmN"><rect x=".5" y="7" width="30" height="25" rx="3.5" stroke="#fff"/><rect x="3.5" y="13" width="24" height="13" rx=".5" stroke="#fff"/><path d="M11.5 13v13m8-13v13" stroke="#fff"/><circle cx="34.5" cy="6" r="2" stroke="#fff"/><path d="M34.5 8v10m.5 3h.001a1.5 1.5 0 0 0 0-3L35 21Zm0 0h-2.5m2.5 0h-2.5m0 0v-3h2.501L32.5 21Z" stroke="#fff"/><path d="M5.5 18v-1h4c-.667.667-2 2.6-2 5m6-4v-1h4c-.667.667-2 2.6-2 5m6-4v-1h4c-.667.667-2 2.6-2 5" stroke="#fff" stroke-linecap="round" stroke-linejoin="round"/><path d="M30.5 25c.667 0 2-.4 2-2v-7c0-1.5-1.5-2-2-2" stroke="#fff"/></symbol><use href="#fdZQJjR0xgHb6G5-a-XmN"/></symbol><symbol id="icon3" viewBox="0 0 37 36"><symbol xmlns="http://www.w3.org/2000/svg" viewBox="0 0 37 36" fill="none" id="Cin8c2fJKsIkjku7Pr8Ab"><rect x=".5" y="17.75" width="33" height="14" rx="1.5" stroke="#fff"/><path d="M3.5 16.25a1.5 1.5 0 0 1 1.5-1.5h30a1.5 1.5 0 0 1 1.5 1.5v11a1.5 1.5 0 0 1-1.5 1.5h-1.5v-9c0-.33-.095-.814-.394-1.23-.318-.44-.843-.77-1.606-.77h-28v-1.5Zm16-10.5a5 5 0 0 1 5 5v4h-10v-4a5 5 0 0 1 5-5Z" stroke="#fff"/><path d="M16.5 11.25c0-1.167.6-3.5 3-3.5m-7-4 1.5 1.5m-5 1.5 4 1.5m-4 3h3m14.5-7.5L25 5.25m5 1.5-4 1.5m4 3h-3m-19 12c0-.5-.3-1.5-1.5-1.5s-1.5 1-1.5 1.5.3 1.5 1.5 1.5 1.5 1 1.5 1.5-.3 1.5-1.5 1.5-1.5-1-1.5-1.5m1.5-4.5v-1.5m0 7.5v1.5m12.5-6c0-.5-.3-1.5-1.5-1.5s-1.5 1-1.5 1.5.3 1.5 1.5 1.5 1.5 1 1.5 1.5-.3 1.5-1.5 1.5-1.5-1-1.5-1.5m1.5-4.5v-1.5m0 7.5v1.5m12.5-6c0-.5-.3-1.5-1.5-1.5s-1.5 1-1.5 1.5.3 1.5 1.5 1.5 1.5 1 1.5 1.5-.3 1.5-1.5 1.5-1.5-1-1.5-1.5m1.5-4.5v-1.5m0 7.5v1.5" stroke="#fff" stroke-linecap="round"/><path d="M23 17.75v14m-11-14v14" stroke="#fff"/></symbol><use href="#Cin8c2fJKsIkjku7Pr8Ab"/></symbol><symbol id="icon4" viewBox="0 0 37 36"><symbol xmlns="http://www.w3.org/2000/svg" viewBox="0 0 37 36" fill="none" id="aY_CfyhdtgODbBose1Jam"><path d="M12.5 10.625c-.5-.833-1-3 1-5 2.5-2.5 7.5-2.5 9.5 0 2.217 2.77 1.167 4.833 1 5.5" stroke="#fff"/><path d="M12 12.125c0-1.5 2.833-3 4-3.5.667.333 2.8 1.1 4 1.5 1.5.5 3.5.5 3.5.5s1 1 1 2-1 1-2 2.5c-2 2.4-3.833 2.667-4.5 2.5-2.4 0-4-2-4.5-3s-1.5-1-1.5-2.5Z" stroke="#fff"/><path d="M22.373 25.008c.498-2.242.663-4.463.755-6.046a22.3 22.3 0 0 1 2.534 1.221c1.199.679 2.287 1.474 2.845 2.273.264.38.521 1.006.758 1.817.233.801.435 1.74.604 2.715.296 1.698.491 3.477.593 4.762H19.155c1.733-1.776 2.679-4.308 3.218-6.742Zm-6.527 3.349c.512 1.293 1.165 2.5 2.005 3.393H6.568c.18-1.376.459-3.256.783-4.994.185-.996.385-1.938.588-2.71.208-.793.405-1.348.57-1.613.065-.105.197-.254.411-.44.209-.183.472-.382.775-.59a26.574 26.574 0 0 1 2.07-1.26 54.255 54.255 0 0 1 2.123-1.118 43.809 43.809 0 0 0 .671 4.783c.296 1.487.71 3.093 1.287 4.549Z" stroke="#fff" stroke-linecap="round" stroke-linejoin="round"/><path d="M11 20.625c.333 2 .6 7-1 11M26.078 20.25c-.154 3.09-.184 9.318.922 11.5" stroke="#fff"/><path d="M21 22.25v-3l-2.5 1.2-2.5-1.2v3l2.5-1.2 2.5 1.2Z" fill="#fff" stroke="#fff" stroke-linecap="round" stroke-linejoin="round"/></symbol><use href="#aY_CfyhdtgODbBose1Jam"/></symbol><symbol id="icon5" viewBox="0 0 37 36"><symbol xmlns="http://www.w3.org/2000/svg" viewBox="0 0 37 36" fill="none" id="unP9ugEoJ3fYqJJPSf8dM"><rect x="5" y="19.75" width="9" height="9" rx=".5" stroke="#fff"/><rect x="14" y="22.75" width="9" height="9" rx=".5" stroke="#fff"/><circle cx="7.5" cy="22.25" r=".5" stroke="#fff"/><circle cx="16.5" cy="25.25" r=".5" stroke="#fff"/><circle cx="20.5" cy="29.25" r=".5" stroke="#fff"/><circle cx="11.5" cy="22.25" r=".5" stroke="#fff"/><circle cx="7.5" cy="26.25" r=".5" stroke="#fff"/><circle cx="11.5" cy="26.25" r=".5" stroke="#fff"/><path d="m16.5 16.307-1.91-3.057 1.91-3.057 1.91 3.057-1.91 3.057Z" fill="#fff" stroke="#fff"/><circle cx="25.5" cy="10.25" r="3.5" stroke="#fff"/><path d="M24 13.25c0 1.5 0 4-1.5 6-1.158 1.544-2.018 2.194-2.35 3.56M27 13.25c0 1.5 0 4 1.5 6s2.5 2.5 2.5 5v1.5m-22-6V5.25c0-1 .5-1.5 1.5-1.5h12c1 0 1.5.5 1.5 1.5v2m-1 18.5h8c1.5 0 1.5 0 1.5 1s0 1-1.5 1h-8" stroke="#fff"/></symbol><use href="#unP9ugEoJ3fYqJJPSf8dM"/></symbol><symbol id="icon6" viewBox="0 0 37 36"><symbol xmlns="http://www.w3.org/2000/svg" viewBox="0 0 37 36" fill="none" id="1UYXnXpp1FWxXFm6RnC-D"><path d="M9.5 6v24" stroke="#fff" stroke-dasharray="4 2"/><path d="M.5 9.5V13c1.333.167 4 1.3 4 4.5S1.833 21.833.5 22v4.5C.5 28.5 2 30 4 30h29c2 0 3.5-2 3.5-3.5v-17c0-1-.5-3.5-3.5-3.5H4C2.833 6 .5 6.7.5 9.5Z" stroke="#fff"/><path d="M29.5 19a6 6 0 1 1-12 0 6 6 0 0 1 12 0Zm-1.756-6.5a4.502 4.502 0 0 0-8.488 0" stroke="#fff"/><path d="M29 21.473a4.5 4.5 0 1 0-3.329-7.973m-4.342 0A4.5 4.5 0 1 0 18 21.473" stroke="#fff"/><path d="M25 16.5h-2.5v2c1 0 2.5 0 2.5 1.5s-2 2-2.5 1" stroke="#fff" stroke-linecap="round" stroke-linejoin="round"/></symbol><use href="#1UYXnXpp1FWxXFm6RnC-D"/></symbol><symbol id="icon7" viewBox="0 0 37 36"><symbol xmlns="http://www.w3.org/2000/svg" viewBox="0 0 37 36" fill="none" id="eLs2l_2O4jYHvjclocvJY"><rect x="1.75" y="9.75" width="29" height="20" rx="3.5" stroke="#fff"/><path d="M4.25 15.25c0-2 1-3 3-3m21 12c0 2-1 3-3 3" stroke="#fff" stroke-linecap="round"/><path d="M30.75 25.75h2c1 0 3-1 3-3.5v-13c0-3-2.5-3.5-3.5-3.5h-21.5c-2 0-4 1-4 4" stroke="#fff"/><circle cx="16.75" cy="16.75" r="2" fill="#fff" stroke="#fff"/><circle cx="13.75" cy="19.75" r="2" fill="#fff" stroke="#fff"/><circle cx="19.75" cy="19.75" r="2" fill="#fff" stroke="#fff"/><path d="M16.25 19.25s1 5-2 5h5c-2.4 0-2.333-3.333-2-5h-1Z" fill="#fff" stroke="#fff" stroke-linecap="round" stroke-linejoin="round"/></symbol><use href="#eLs2l_2O4jYHvjclocvJY"/></symbol><symbol id="logo-mode" viewBox="0 0 466 289"><g data-v-60abdccc="" fill-rule="evenodd"><g data-v-60abdccc="" fill="none" stroke="#fff" stroke-width="5"><path data-v-60abdccc="" d="M316.598 132.428c-.165 14.14.884 31.088-.511 50.592-1.396 19.503-3.927 35.907-7.744 49.378-3.694 13.4-8.666 23.456-14.504 30.174-5.838 6.718-12.079 11.465-18.646 13.95-6.567 2.485-13.763 3.455-21.737 3.079-32.696-1.618-46.594-36.296-42.145-104.675 3.254-49.235 12.404-78.36 28.08-87.41 15.678-9.052 30.305-13.414 43.665-13.044 4.92.18 8.527.629 10.768 1.54 2.24.91 5.11 3.336 8.655 7.495 3.57 4.062 6.533 9.619 8.915 16.572 2.381 6.953 5.331 17.579 5.166 31.718l.038.631zm-70.907 42.082c-1.427 18.46-.86 35.28 1.53 50.31 2.392 15.032 5.892 23.216 10.503 24.555 4.29.218 9.001-7.32 14.108-22.515a182.884 182.884 0 009.177-46.613c1.018-15.775.605-31.621-1.238-47.54-1.939-15.946-6.22-23.926-12.957-24.282-10.904-.644-17.99 21.165-21.123 66.085zM214.22 91.434c-.118 12.806.791 27.957-.499 45.522-1.193 17.59-3.408 32.423-6.617 44.4-3.235 12.074-7.414 21.1-12.465 27.201-5.051 6.1-10.435 10.352-16.003 12.587-5.594 2.332-11.818 3.149-18.774 2.838-28.09-1.419-40.008-32.668-36.16-94.168 2.784-44.392 10.72-70.529 24.199-78.72 13.479-8.19 26.012-12.078 37.504-11.69 4.29.217 7.387.633 9.242 1.44 1.854.808 4.363 3.033 7.406 6.747 3.042 3.714 5.652 8.658 7.609 14.876 2.054 6.245 4.56 15.82 4.468 28.529l.09.438zm-60.99 37.906c-1.153 16.67-.752 31.789 1.325 45.286 2.052 13.594 5.083 20.826 9.088 22.106 3.685.159 7.751-6.516 12.18-20.341a173.107 173.107 0 007.935-41.977c.893-14.15.6-28.516-1.05-42.83-1.652-14.316-5.411-21.535-11.131-21.825-9.572-.598-15.58 19.119-18.346 59.581z"/> <path data-v-60abdccc="" d="M112.482 101.754c3.531 20.823-6.08 52.826-28.735 96.035 8.233-.589 17.624.685 28.004 3.673 10.38 2.989 16.748 10.907 18.936 23.605 1.503 8.686-.207 16.613-4.673 24.009-4.467 7.396-12.707 14.195-24.458 20.57-11.847 6.351-24.265 10.581-37.183 12.814l-8.685 1.503-19.295 2.077c-.907-.864-4.242-18.943-10.37-54.025l-8.914-49.804c-5.912-33.574-10.196-65.884-13.63-96.724 5.152-4.934 12.63-9.66 22.864-13.854 10.234-4.194 19.932-6.772 29.112-7.418 33.608-2.176 52.538 10.247 57.13 37.153l-.103.386zm-53.428-9.243c-4.323.291-8.963 2.153-13.798 5.517l11.6 91.935c15.722-30.47 21.193-58.613 16.56-84.597-1.593-9.123-6.445-13.425-14.678-12.836l.316-.02zm32.447 138.932c-.863-4.89-3.293-8.958-7.502-12.57-4.208-3.613-9.205-5.055-15.325-4.624-2.113.158-4.497.555-6.888 1.364l7.35 43.276c1.797-.14 4.381-.896 7.752-2.27 3.344-1.279 6.039-2.834 8.109-4.764 2.044-1.834 3.812-4.57 5.156-8.04 1.344-3.47 1.633-7.637.865-12.502l.483.13zM366.012 8.288c7.143.775 12.03 3.016 14.634 6.82 2.63 3.706 3.597 8.21 2.979 13.221-.618 5.01-3.271 9.89-7.786 14.375-4.514 4.484-10.83 6.415-18.99 5.575-8.16-.841-13.923-2.903-17.359-6.308-3.435-3.405-4.751-7.381-4.333-12.032 1.733-16.514 12.042-23.69 31.17-21.67l-.315.019zm-13.49 210.687l-28.7 3.18 16.859-162.99 31.484 1.5-19.643 158.31zm34.833 24.552c-6.24-1.051-10.348-3.497-12.469-7.171-2.025-3.649-2.535-7.927-1.582-12.64.926-4.618 3.573-9.086 7.887-13.21 4.314-4.123 10.088-5.579 17.224-4.391 7.135 1.187 12.093 3.55 14.73 6.845 2.637 3.295 3.592 7.071 2.84 11.425-2.492 15.482-12.227 21.674-28.965 18.845l.335.297zM419.45 25.608l33.39 2.115L413.49 193.9l-24.937-4.3L419.45 25.608z"/></g> <g data-v-60abdccc="" fill="currentColor" fill-rule="nonzero"><path data-v-60abdccc="" d="M330.47 123.93c-.164 14.138.885 31.087-.51 50.59-1.396 19.504-3.928 35.908-7.745 49.379-3.694 13.4-8.666 23.456-14.504 30.174-5.837 6.718-12.078 11.465-18.645 13.95-6.567 2.485-13.764 3.455-21.738 3.078-32.695-1.617-46.593-36.296-42.144-104.674 3.254-49.235 12.404-78.36 28.08-87.41 15.677-9.052 30.305-13.414 43.664-13.044 4.921.18 8.528.628 10.768 1.54 2.241.91 5.111 3.336 8.655 7.495 3.57 4.062 6.533 9.618 8.915 16.572 2.381 6.953 5.332 17.579 5.167 31.718l.038.631zm-71.004 42.055c-1.426 18.46-.86 35.28 1.531 50.31 2.391 15.031 5.892 23.216 10.503 24.555 4.29.218 9.001-7.32 14.108-22.515a182.884 182.884 0 009.177-46.613c1.017-15.775.605-31.621-1.238-47.54-1.939-15.946-6.22-23.926-12.957-24.282-10.879-.74-17.99 21.165-21.124 66.085zM226.14 83.654c-.119 12.806.79 27.957-.5 45.522-1.193 17.59-3.407 32.423-6.616 44.4-3.236 12.074-7.414 21.1-12.465 27.2-5.051 6.101-10.435 10.353-16.003 12.588-5.568 2.235-11.818 3.149-18.774 2.838-28.09-1.419-40.008-32.668-36.16-94.168 2.784-44.392 10.72-70.529 24.198-78.72 13.48-8.19 26.013-12.078 37.504-11.69 4.29.217 7.388.633 9.242 1.44 1.855.808 4.364 3.033 7.407 6.747 3.042 3.714 5.651 8.658 7.609 14.876 2.053 6.245 4.56 15.82 4.468 28.529l.09.438zm-61.112 37.977c-1.154 16.67-.753 31.788 1.324 45.286 2.052 13.594 5.084 20.825 9.089 22.105 3.684.16 7.75-6.516 12.18-20.34a173.107 173.107 0 007.934-41.977c.893-14.151.601-28.516-1.05-42.831-1.651-14.315-5.411-21.534-11.13-21.825-9.476-.571-15.58 19.12-18.347 59.582z" fill="#fff"/> <path data-v-60abdccc="" d="M127.8 85.153c3.532 20.823-6.079 52.827-28.734 96.035 8.233-.589 17.623.685 28.004 3.673 10.476 3.015 16.747 10.907 18.935 23.606 1.504 8.685-.206 16.612-4.673 24.008-4.466 7.396-12.707 14.195-24.457 20.571-11.848 6.35-24.265 10.58-37.184 12.813l-8.685 1.503-19.295 2.077c-.907-.864-4.241-18.943-10.37-54.025l-8.914-49.804c-5.912-33.574-10.195-65.884-13.63-96.724 5.152-4.934 12.63-9.66 22.865-13.854 10.234-4.194 19.931-6.772 29.111-7.418 33.609-2.175 52.539 10.247 57.131 37.153l-.103.386zM74.374 75.91c-4.323.291-8.963 2.154-13.798 5.517l11.6 91.935c15.722-30.47 21.192-58.612 16.56-84.597-1.593-9.123-6.445-13.425-14.678-12.836l.316-.02zm32.447 138.932c-.864-4.89-3.294-8.958-7.502-12.57-4.209-3.612-9.206-5.055-15.326-4.624-2.113.158-4.497.555-6.887 1.364l7.35 43.276c1.797-.14 4.38-.896 7.751-2.27 3.345-1.278 6.04-2.834 8.11-4.764 2.044-1.834 3.812-4.57 5.156-8.04 1.344-3.47 1.632-7.637.865-12.502l.483.13zM379.934 1.148c7.143.775 12.03 3.016 14.634 6.82 2.63 3.706 3.597 8.21 2.98 13.221-.619 5.01-3.272 9.89-7.786 14.375-4.515 4.484-10.83 6.416-18.99 5.575-8.16-.84-13.924-2.903-17.36-6.308-3.435-3.405-4.75-7.381-4.333-12.032C350.812 6.285 361.121-.89 380.25 1.13l-.316.019zm-13.586 210.661l-28.7 3.18L354.506 52l31.484 1.5-19.643 158.31zm33.962 25.871c-6.241-1.05-10.348-3.497-12.47-7.17-2.024-3.65-2.534-7.927-1.582-12.641.927-4.618 3.573-9.085 7.888-13.209 4.314-4.124 10.087-5.579 17.223-4.392 7.136 1.188 12.093 3.551 14.73 6.846 2.637 3.295 3.593 7.07 2.84 11.424-2.492 15.483-12.226 21.675-28.964 18.846l.334.297zm32.094-217.918l33.391 2.114-39.35 166.178-24.937-4.3 30.896-163.992z" fill="#fff"/></g></g></symbol><symbol id="logo" viewBox="0 0 449 566"><g data-v-1d685428="" fill="none" fill-rule="evenodd" transform="translate(2,0)"><g data-v-1d685428="" fill="#fff" transform="translate(81,356) rotate(30)" class="monkey"><path data-v-1d685428="" d="M105.35,164.33C103.71,160.72,100.28,160.12,97.84,163.19C96.32,165.09,95.43,167.49,94.23,169.65C92.86,172.1,91.83,174.85,90.03,176.93C82.95,185.14,73.55,184.67,64.2,182.93C58.01,181.76,52.54,178.59,47.4,174.93C31.97,163.83,22.4,149.15,19.75,130.18C19.7138,129.422,19.7473,128.662,19.85,127.91C20.9672,128.847,21.9888,129.892,22.9,131.03C25.85,133.84,28.67,136.87,32,139.16C35.48,141.55,38.35,141.07,41.43,138.16C44.2022,135.485,46.7788,132.614,49.14,129.57C50.373,127.819,51.3245,125.885,51.96,123.84C53.1,120.64,52.16,118.11,49.6,115.84C47.91,114.32,45.83,112.92,45.85,109.93L48.09,110.21C52.25,110.76,56.4,111.48,60.57,111.84C64.4,112.17,67.47,110.67,68.99,106.93C71.27,101.28,72.61,95.52,70.9,89.4C70.18,86.85,68.71,85.86,66.02,85.95C65.02,85.95,64.02,85.95,62.97,86.01C55.3016,89.8565,46.382,90.3532,38.334,87.3818C30.2859,84.4105,23.8291,78.2368,20.5,70.33C19.927,70.4131,19.349,70.4565,18.77,70.46C14.3335,70.5871,10.1785,68.2929,7.92272,64.4705C5.66695,60.6482,5.66695,55.9018,7.92272,52.0795C10.1785,48.2571,14.3335,45.9629,18.77,46.09C19.3523,46.0943,19.9336,46.1377,20.51,46.22C20.74,45.67,21.02,45.13,21.29,44.59C21.5111,42.4907,21.8922,40.4113,22.43,38.37C22.3464,38.0436,22.326,37.7041,22.37,37.37C23.31,31.58,23.64,25.55,28.84,21.37C29.6656,20.545,30.0385,19.3701,29.84,18.22C29.01,15.82,28.71,12.66,24.84,12.9C25.05,12.41,25.09,12.08,25.26,11.99C28.12,10.52,27.62,7.61,27.74,5.28C27.83,3.28,24.12,0.7,21.66,0.53C15.94,0.15,10.43,0.75,5.5,4.12C2.96,5.85,0.21,7.32,0.28,10.99L0.28,12.53C1.48,17.53,4.07,22.53,0.28,27.47L0.28,28.47C0.63,29.19,1.28,29.9,1.28,30.62C1.33,34.99,1.09,39.37,1.2,43.74C1.53,56.07,1.71,68.42,2.48,80.74C3.12,91.07,4.26,101.38,5.66,111.64C6.95838,120.344,9.28463,128.864,12.59,137.02C16.93,148.08,22.38,158.54,30,167.67C41.76,181.75,56.35,190.47,75.34,189.97C78.9235,189.889,82.4994,189.602,86.05,189.11C93.97,187.98,100.69,184.66,104.57,177.31C106.76,173.18,107.35,168.73,105.35,164.33Z"/> <path data-v-1d685428="" d="M38.89,57.86C37.3767,57.86,36.15,59.0867,36.15,60.6C36.15,62.1133,37.3767,63.34,38.89,63.34C40.4033,63.34,41.63,62.1133,41.63,60.6C41.6327,59.8725,41.3448,59.174,40.8304,58.6596C40.316,58.1452,39.6175,57.8573,38.89,57.86ZM58.83,57.86C57.3167,57.86,56.09,59.0867,56.09,60.6C56.09,62.1133,57.3167,63.34,58.83,63.34C60.3433,63.34,61.57,62.1133,61.57,60.6C61.57,59.0867,60.3433,57.86,58.83,57.86Z" fill-rule="nonzero"/> <path data-v-1d685428="" d="M78.62,48.1C77.8522,48.1022,77.0871,48.1928,76.34,48.37C73.1018,39.3595,65.6125,32.5367,56.34,30.15C55.41,29.92,54.47,29.72,53.52,29.58C50.6042,29.1267,47.6358,29.1267,44.72,29.58C41.899,30.0023,39.1581,30.8485,36.59,32.09C29.6835,35.4262,24.3799,41.3626,21.84,48.6C20.8535,48.2698,19.8203,48.101,18.78,48.1C13.2378,48.1,8.745,52.5928,8.745,58.135C8.745,63.6772,13.2378,68.17,18.78,68.17C19.8203,68.169,20.8535,68.0002,21.84,67.67C25.8661,79.2525,36.7655,87.0315,49.0277,87.0743C61.2899,87.117,72.2432,79.4142,76.35,67.86C80.048,68.6013,83.8485,67.1989,86.1786,64.2333C88.5088,61.2677,88.9722,57.2433,87.3771,53.8257C85.7819,50.4081,82.3997,48.1786,78.63,48.06L78.62,48.1ZM49.15,83.56C35.1123,83.5435,23.7365,72.1677,23.72,58.13C23.7226,57.1945,23.776,56.2597,23.88,55.33C25.4964,49.3219,30.9383,45.1421,37.16,45.13C42.2053,45.1367,46.7807,48.0931,48.86,52.69C50.9373,48.0913,55.5139,45.1342,60.56,45.13C67.66,45.13,74.17,51,74.17,58.13L74.3,61.74C72.4974,74.2491,61.7883,83.5402,49.15,83.56Z" fill-rule="nonzero"/></g> <g data-v-1d685428="" fill-rule="nonzero" stroke="#fff" stroke-width="5" transform="translate(0,9)"><path data-v-1d685428="" d="M315.46,136.38C318.99,150.09,324.36,166.17,328.06,185.38C331.76,204.59,333.54,221.13,333.4,235.04C333.26,248.95,331.14,259.94,327.2,267.97C323.26,276,318.46,282.16,312.81,286.3C306.741,290.568,299.841,293.512,292.56,294.94C260.56,301.83,238.18,271.94,224.8,204.78C215.18,156.37,216.53,125.88,229.32,113.04C242.11,100.2,255.1,92.23,268.12,89.19C272.96,88.09,276.56,87.61,278.93,87.9C281.3,88.19,284.73,89.84,289.23,92.9C293.73,95.96,298.07,100.47,302.12,106.59C308.177,115.515,312.652,125.417,315.35,135.86L315.46,136.38ZM257.76,195.38C261.213,213.593,266.053,229.657,272.28,243.57C278.52,257.49,284.02,264.43,288.82,264.57C293,263.65,295.61,255.22,296.6,239.15C297.607,223.283,296.545,207.353,293.44,191.76C290.34,176.173,285.818,160.902,279.93,146.14C273.98,131.26,267.69,124.67,261.15,126.05C250.35,128.2,249.22,151.18,257.76,195.39L257.76,195.38ZM205.91,123.2C209.09,135.55,213.91,150.04,217.26,167.32C220.61,184.6,222.34,199.47,222.36,211.97C222.38,224.47,220.67,234.31,217.36,241.48C214.05,248.65,209.98,254.13,205.15,257.79C199.991,261.559,194.063,264.14,187.79,265.35C160.28,271.22,140.7,244.13,128.49,183.7C119.72,140.13,120.58,112.76,131.49,101.36C142.4,89.96,153.49,82.93,164.67,80.36C168.84,79.43,171.93,79.04,173.98,79.36C176.03,79.68,178.98,81.16,182.9,83.92C187.409,87.3077,191.227,91.5269,194.15,96.35C199.459,104.462,203.398,113.391,205.81,122.78L205.91,123.2ZM156.79,175.61C159.496,190.525,163.856,205.092,169.79,219.04C175.3,231.6,180.11,237.89,184.25,238.04C187.85,237.25,190.01,229.71,190.7,215.28C191.406,201.009,190.331,186.705,187.5,172.7C184.676,158.67,180.631,144.915,175.41,131.59C170.13,118.17,164.64,112.19,159.02,113.37C149.76,115.2,148.98,135.86,156.79,175.61Z"/> <path data-v-1d685428="" d="M110.27,159.54C119.07,178.753,118.093,212.17,107.34,259.79C115.16,257.123,124.493,255.873,135.34,256.04C146.187,256.207,154.313,262.183,159.72,273.97C163.313,281.602,163.92,290.303,161.42,298.36C158.98,306.653,152.867,315.393,143.08,324.58C133.475,333.61,122.481,341.038,110.52,346.58L102.52,350.29L84.41,357.29C83.28,356.7,75.41,340.08,60.41,307.77L38.96,261.92C24.58,231.01,12.07,200.92,0.76,172.02C4.42,165.91,10.5,159.45,19.26,152.72C28.02,145.99,36.75,141.07,45.5,138.07C77.4,127.32,98.94,134.38,110.32,159.19L110.27,159.54ZM56.27,164.39C52.17,165.8,48.16,168.79,44.42,173.31L79.42,259.11C86.6867,225.65,84.7367,196.967,73.57,173.06C69.71,164.653,63.87,161.787,56.05,164.46L56.27,164.39ZM123.65,290.2C121.507,285.642,117.778,282.02,113.16,280.01C108.21,277.65,102.97,277.5,97.16,279.47C94.9362,280.258,92.8145,281.309,90.84,282.6L109.16,322.6C111.643,321.535,113.971,320.139,116.08,318.45C118.666,316.64,120.914,314.389,122.72,311.8C124.387,309.031,125.39,305.912,125.65,302.69C126.097,298.97,125.293,294.867,123.24,290.38L123.65,290.2ZM331.06,3.6C338.13,2.47,343.42,3.44,346.91,6.36C350.482,9.39513,352.74,13.696,353.21,18.36C353.86,23.36,352.6,28.73,349.4,34.23C346.2,39.73,340.56,43.23,332.46,44.49C324.36,45.75,318.23,45.26,314.07,42.9C310.11,40.7772,307.41,36.8828,306.81,32.43C304.19,16.08,312.32,6.43,331.33,3.43L331.06,3.6ZM372.48,210.6L345.6,221.09L319.73,59.35L350.53,52.61L372.48,210.6ZM412.51,225.35C406.19,225.93,401.57,224.64,398.64,221.62C395.71,218.6,394.16,214.62,393.85,209.78C393.54,204.94,394.95,200.12,398.07,194.98C401.19,189.84,406.35,186.98,413.58,186.29C420.81,185.6,426.2,186.56,429.58,189.11C432.956,191.508,435.075,195.298,435.35,199.43C436.897,214.99,429.193,223.543,412.24,225.09L412.51,225.35ZM387.1,6.57L419.91,0L424.91,170.7L399.67,173L387.1,6.57Z"/></g> <g data-v-1d685428="" fill="#fff" fill-rule="nonzero" transform="translate(11,0)"><path data-v-1d685428="" d="M315.57,133.55C319.1,147.27,324.47,163.34,328.17,182.55C331.87,201.76,333.65,218.29,333.52,232.21C333.39,246.13,331.26,257.11,327.31,265.14C323.36,273.17,318.58,279.32,312.92,283.46C306.857,287.732,299.96,290.676,292.68,292.1C260.68,298.99,238.29,269.1,224.91,201.95C215.29,153.54,216.64,123.05,229.44,110.21C242.24,97.37,255.22,89.4,268.23,86.35C273.08,85.25,276.67,84.78,279.04,85.06C281.41,85.34,284.85,87,289.34,90.06C294.491,93.7399,298.87,98.3945,302.23,103.76C308.28,112.689,312.746,122.594,315.43,133.04L315.57,133.55ZM257.88,192.55C261.32,210.77,266.16,226.837,272.4,240.75C278.63,254.66,284.13,261.6,288.93,261.75C293.12,260.82,295.72,252.39,296.72,236.32C297.724,220.456,296.658,204.529,293.55,188.94C290.455,173.352,285.936,158.082,280.05,143.32C274.1,128.43,267.8,121.85,261.26,123.23C250.5,125.37,249.35,148.35,257.88,192.56L257.88,192.55ZM204.35,121.69C207.53,134.04,212.35,148.53,215.7,165.81C219.05,183.09,220.78,197.96,220.8,210.46C220.82,222.96,219.1,232.8,215.8,239.97C212.5,247.14,208.42,252.62,203.59,256.29C198.429,260.057,192.502,262.641,186.23,263.86C158.71,269.73,139.13,242.65,126.93,182.22C118.16,138.64,119.02,111.28,129.93,99.87C140.84,88.46,151.93,81.44,163.12,78.87C167.29,77.93,170.38,77.54,172.43,77.87C174.48,78.2,177.43,79.67,181.35,82.43C185.859,85.8138,189.677,90.0298,192.6,94.85C197.91,102.964,201.85,111.897,204.26,121.29L204.35,121.69ZM155.22,174.11C157.931,189.02,162.292,203.583,168.22,217.53C173.73,230.09,178.54,236.38,182.68,236.53C186.27,235.74,188.44,228.19,189.13,213.77C189.837,199.496,188.762,185.189,185.93,171.18C183.103,157.154,179.058,143.402,173.84,130.08C168.56,116.65,163.07,110.67,157.45,111.85C148.21,113.69,147.44,134.32,155.24,174.11L155.22,174.11Z"/> <path data-v-1d685428="" d="M109.78,148.58C118.58,167.78,117.603,201.193,106.85,248.82C114.663,246.153,123.997,244.907,134.85,245.08C145.703,245.253,153.827,251.227,159.22,263C162.82,270.63,163.43,279.332,160.93,287.39C158.49,295.69,152.373,304.43,142.58,313.61C132.98,322.641,121.989,330.069,110.03,335.61L102.03,339.31L83.92,346.31C82.79,345.72,74.92,329.11,59.92,296.79L38.47,250.95C24.08,220.03,11.58,189.95,0.27,161.05C3.93,154.93,10.01,148.47,18.77,141.75C27.53,135.03,36.26,130.09,45.01,127.1C76.91,116.34,98.5133,123.377,109.82,148.21L109.78,148.58ZM55.78,153.43C51.68,154.83,47.67,157.82,43.93,162.35L78.93,248.14C86.1967,214.68,84.2467,186.013,73.08,162.14C69.22,153.727,63.38,150.86,55.56,153.54L55.78,153.43ZM123.15,279.24C121.007,274.68,117.279,271.054,112.66,269.04C107.66,266.68,102.47,266.53,96.66,268.5C94.4383,269.29,92.3198,270.344,90.35,271.64L108.66,311.64C111.145,310.569,113.476,309.17,115.59,307.48C118.176,305.67,120.424,303.419,122.23,300.83C123.895,298.059,124.897,294.942,125.16,291.72C125.613,288,124.81,283.897,122.75,279.41L123.15,279.24ZM331.62,2.1C338.69,0.96,343.98,1.93,347.47,4.85C351.042,7.88513,353.3,12.186,353.77,16.85C354.42,21.85,353.16,27.22,349.96,32.72C346.76,38.22,341.12,41.72,333.02,42.99C324.92,44.26,318.79,43.75,314.63,41.39C310.647,39.26,307.936,35.3389,307.35,30.86C304.73,14.51,312.86,4.86,331.87,1.86L331.62,2.1ZM373.04,209.1L346.16,219.6L320.29,57.86L351.09,51.12L373.04,209.1ZM412.51,225.35C406.19,225.93,401.57,224.64,398.64,221.62C395.71,218.6,394.16,214.62,393.85,209.78C393.54,204.94,394.96,200.12,398.07,194.98C401.18,189.84,406.35,186.98,413.58,186.29C420.81,185.6,426.2,186.56,429.58,189.1C432.952,191.506,435.07,195.297,435.35,199.43C436.91,214.99,429.207,223.543,412.24,225.09L412.51,225.35ZM387.1,6.57L419.91,0L424.91,170.69L399.66,173L387.1,6.57Z"/></g></g></symbol><symbol id="pay" viewBox="0 0 184 151"><view id="icon-footer__astropay" viewBox="87 30 86 23"/><svg width="86" height="23" viewBox="0 0 86 23" x="87" y="30" xmlns="http://www.w3.org/2000/svg"/><view id="icon-footer__interac" viewBox="0 95 56 56"/><svg width="56" height="56" viewBox="0 0 56 56" y="95" xmlns="http://www.w3.org/2000/svg"/><view id="icon-footer__maestro" viewBox="57 60 45 35"/><svg width="45" height="35" viewBox="0 0 45 35" x="57" y="60" xmlns="http://www.w3.org/2000/svg"/><view id="icon-footer__mastercard" viewBox="102 60 45 35"/><svg width="45" height="35" viewBox="0 0 45 35" x="102" y="60" xmlns="http://www.w3.org/2000/svg"/><view id="icon-footer__neteller" viewBox="0 0 184 30"/><svg width="184" height="30" viewBox="0 0 184 30" xmlns="http://www.w3.org/2000/svg"/><view id="icon-footer__skrill" viewBox="0 30 87 30"/><svg width="87" height="30" viewBox="0 0 87 30" y="30" xmlns="http://www.w3.org/2000/svg"/><view id="icon-footer__visa" viewBox="0 60 57 35"/><svg width="57" height="35" viewBox="0 0 57 35" y="60" xmlns="http://www.w3.org/2000/svg"/><view id="icon-footer__webmoney" viewBox="147 60 36 35"/><svg width="36" height="35" viewBox="0 0 36 35" x="147" y="60" xmlns="http://www.w3.org/2000/svg"/><g fill="none"><path fill="#FFF" d="M5.767.658.043 17.43h3.363l1.617-4.894h4.65l1.66 4.894h3.434L9.044.659H5.767zM8.872 9.76H5.867l1.245-3.692c.086-.257.172-.5.243-.758.086.257.157.515.258.773L8.872 9.76zm11.562.043c-1.545-.615-1.717-.902-1.717-1.345 0-.558.472-.916 1.23-.916.916 0 1.617.358 1.96.572l.66.415.872-2.661-.386-.258c-.759-.5-1.904-.787-3.063-.787-2.59 0-4.464 1.632-4.464 3.892 0 2.075 1.831 3.177 3.377 3.735 1.53.573 1.66.973 1.66 1.46 0 .916-.973 1.059-1.531 1.059-.888 0-1.846-.387-2.39-.701l-.658-.387-.859 2.719.415.243c.945.558 2.19.873 3.449.873 2.847 0 4.765-1.603 4.765-3.978 0-2.418-1.903-3.406-3.32-3.935zm8.371-7.641-3.205.973V5.05h-1.717v2.762h1.731v5.48c0 1.532.315 2.62.944 3.349.616.687 1.56 1.059 2.633 1.059.973 0 1.675-.2 2.004-.315l.429-.157-.172-2.776-.73.229c-.228.057-.472.114-1.001.114-.387 0-.916 0-.916-1.56V7.813h2.905V5.051h-2.89l-.015-2.89zm10.703 2.776-.586-.072a3.335 3.335 0 0 0-.573-.043c-1.016 0-1.946.415-2.661 1.145l-.029-.916h-3.005l.043.644c.057.945.1 2.046.1 3.449v8.3h3.249v-6.569c0-.315.028-.615.057-.844.243-1.288 1.044-2.09 2.118-2.09.257 0 .415 0 .558.03l.73.157V4.937zm5.925-.115c-3.62 0-6.153 2.676-6.153 6.525 0 3.735 2.446 6.354 5.952 6.354 2.977 0 6.168-2.046 6.168-6.54.028-3.734-2.433-6.339-5.967-6.339zm2.704 6.397c0 2.16-1.173 3.734-2.776 3.734-1.603 0-2.762-1.56-2.762-3.677 0-1.374.601-3.706 2.82-3.706 2.146-.015 2.718 2.375 2.718 3.649zm13.938-9.23C61 1.03 59.399.544 57.309.544c-1.402 0-2.733.1-3.949.315l-.5.085v16.5h3.219v-6.14c.329.03.672.043 1.002.043 2.175 0 4.02-.672 5.194-1.888.916-.93 1.374-2.19 1.374-3.75-.015-1.502-.558-2.818-1.574-3.72zm-1.66 3.82c0 2.347-2.06 2.69-3.292 2.69-.415 0-.758-.013-1.058-.056V3.406c.314-.043.744-.058 1.287-.058 1.403.015 3.063.444 3.063 2.462zm13.107 8.343V9.974c0-3.334-1.731-5.152-4.85-5.152-1.446 0-2.963.401-4.022 1.06l-.4.257.872 2.575.673-.457c.673-.458 1.646-.73 2.604-.73.644-.015 1.13.143 1.446.458.257.257.415.644.472 1.13-2.533.072-4.393.687-5.51 1.803-.786.773-1.187 1.775-1.187 2.962 0 1.89 1.374 3.82 4.02 3.82 1.131 0 2.19-.357 3.02-1l.086.729h3.077l-.1-.701c-.158-.673-.2-1.546-.2-2.576zm-5.409.83c-.486 0-1.288-.172-1.288-1.33 0-.444.13-.788.415-1.074.387-.372 1.217-.801 3.105-.844v1.33c0 .1-.014.272-.057.458-.243.673-.944 1.46-2.175 1.46zm14.338-9.93-2.347 6.968c-.057.172-.114.358-.171.53a5.175 5.175 0 0 0-.186-.501l-2.562-7h-3.548l4.436 11.119.014.028c.071.143.1.23.1.258-.029.057-.072.172-.1.243-.387.83-.959 1.589-1.531 2.046l-.015.015c-.643.543-1.316.801-1.574.873l-.572.186.83 2.776.53-.1c.329-.058 1.473-.33 2.79-1.431 1.574-1.388 2.618-3.62 3.992-7.241L85.9 5.037l-3.449.014z"/><path fill="red" d="M11.905 5.28c2.09-2.132 5.638-3.405 9.488-3.405 1.502 0 2.962.186 4.335.572l.115.029 2.475-.745-1.116-.415C25.1.516 22.666.086 20.176.086c-3.62 0-6.983.873-9.515 2.461l-.272.172 1.044 3.048.472-.487z"/></g><g fill="none" fill-rule="evenodd"><mask id="bb" fill="#fff"><use xlink:href="#ba"/></mask><g mask="url(#bb)" fill-rule="nonzero"><path d="M5.461.954h45.076a4.508 4.508 0 0 1 4.508 4.508v45.076a4.508 4.508 0 0 1-4.508 4.508H5.461a4.507 4.507 0 0 1-4.507-4.507V5.462A4.508 4.508 0 0 1 5.46.954Z" fill="#FDB913"/><path d="M50.538.954a4.508 4.508 0 0 1 4.507 4.508v45.076a4.508 4.508 0 0 1-4.507 4.508H5.462a4.508 4.508 0 0 1-4.508-4.508V5.462A4.508 4.508 0 0 1 5.462.954h45.076m0-.954H5.462A5.468 5.468 0 0 0 0 5.462v45.076A5.468 5.468 0 0 0 5.462 56h45.076a5.467 5.467 0 0 0 5.461-5.462V5.462A5.467 5.467 0 0 0 50.538 0" fill="#FFF"/><path d="m31.156 28.584-.005-9.685 2.528-.6v1.27s.655-1.67 2.175-2.057c.227-.073.468-.09.703-.047v2.47a3.57 3.57 0 0 0-1.325.276c-.934.37-1.404 1.174-1.404 2.403l.002 5.348-2.674.622ZM17.83 31.733s-.411-.616-.411-2.795v-4.822l-1.301.31v-1.987l1.304-.308v-2.166l2.688-.635v2.166l1.899-.451v1.984l-1.9.45s-.002 3.952 0 4.911c0 2.233.593 2.661.593 2.661l-2.872.682Zm4.46-5.761c0-1.722.245-2.978.771-3.942.627-1.144 1.654-1.89 3.15-2.23 2.949-.67 4.013 1.075 3.972 3.415-.016.837-.012 1.245-.012 1.245l-5.195 1.221v.084c0 1.635.343 2.411 1.379 2.192.895-.19 1.144-.75 1.215-1.444.011-.111.017-.396.017-.396l2.434-.583s.005.2.002.423c-.021.93-.292 3.234-3.674 4.034-3.205.76-4.06-1.196-4.06-4.02m4.03-4.367c-.861.195-1.313 1.04-1.332 2.439l2.613-.623a8.04 8.04 0 0 0 .005-.42c-.005-1.057-.331-1.615-1.286-1.396m19.336-1.296c-.1-2.95.664-5.29 3.955-6.036 2.097-.476 2.894.07 3.297.597.388.503.538 1.182.538 2.132l.002.175-2.574.611-.002-.358c.002-1.127-.312-1.556-1.13-1.35-.974.244-1.367 1.168-1.367 3.005 0 .653.002.77.002.858 0 1.867.256 2.722 1.378 2.487.973-.201 1.106-1.056 1.122-1.806l.007-.494 2.57-.607s.003.19.003.401c-.006 2.449-1.297 3.992-3.715 4.554-3.33.781-3.983-1.144-4.086-4.169m-8.9 4.13c0-2.244 1.314-2.953 3.292-3.772 1.78-.736 1.818-1.101 1.825-1.74.01-.539-.24-1-1.125-.773a1.337 1.337 0 0 0-1.072 1.267c-.015.165-.02.331-.017.497l-2.494.589a4.962 4.962 0 0 1 .172-1.474c.399-1.341 1.582-2.244 3.625-2.717 2.653-.611 3.538.553 3.541 2.365v4.29c0 2.074.385 2.378.385 2.378l-2.449.58a5.321 5.321 0 0 1-.328-.88s-.536 1.35-2.385 1.785c-1.942.458-2.97-.746-2.97-2.395m5.1-3.064c-.413.29-.848.545-1.303.763-.816.399-1.185.89-1.185 1.648 0 .657.407 1.087 1.146.905.792-.2 1.342-.94 1.342-1.967v-1.349ZM3.775 38.522a1.554 1.554 0 0 1-1.302-2.4l.017-.022.03-.008 3.656-.863v2.777l-.057.013c-.83.2-1.821.427-2.025.47a1.53 1.53 0 0 1-.319.033m0 3.552a1.552 1.552 0 0 1-1.302-2.394l.017-.026.03-.008 3.656-.863v2.777l-.057.015c-.83.199-1.821.428-2.025.47-.105.02-.212.03-.319.03m0 3.558a1.553 1.553 0 0 1-1.302-2.396l.017-.028 3.686-.868v2.776l-.057.015c-.876.21-1.849.43-2.025.47a1.62 1.62 0 0 1-.319.031M3.344 35.12l-.001-15.536 2.832-.67V34.45zm7.055-1.322a1.748 1.748 0 1 0-3.495 0l.003 14.52a4.738 4.738 0 0 0 4.729 4.733c1.322 0 4.946-.007 4.946-.007l.002-6.057.002-6.756c0-.765-.38-1.48-1.017-1.904l-4.409-2.995v6.8a.376.376 0 0 1-.753 0l-.008-8.334m2.361-10.834a3.821 3.821 0 0 0-2.522 1.95V23.82l-2.55.604.002 6.973a2.61 2.61 0 0 1 2.686.47v-4.503c0-1.078.537-1.94 1.303-2.109.577-.126 1.059.08 1.059 1.107l.002 6.569 2.686-.63v-6.949c0-1.684-.649-2.862-2.667-2.389M51.79 13.02a1.66 1.66 0 1 1-.003-3.32 1.66 1.66 0 0 1 .003 3.32m0-3.111a1.452 1.452 0 1 0 0 2.904 1.452 1.452 0 0 0 0-2.904" fill="#231F20"/><path d="M51.186 10.372h.715a.468.468 0 0 1 .515.52c0 .263-.117.465-.338.5v.004c.201.02.307.131.317.416.004.129.006.288.012.412 0 .07.036.137.096.175h-.366a.338.338 0 0 1-.054-.18c-.012-.12-.009-.235-.014-.382-.006-.222-.073-.318-.295-.318h-.265v.88h-.323v-2.027Zm.582.902a.298.298 0 0 0 .323-.328c0-.216-.093-.33-.306-.33h-.276v.658h.259Z" fill="#231F20"/></g></g><g fill="none"><path fill="#7673C0" d="M16.4 3.012h12.115v21.773H16.4z"/><path fill="#EB001B" d="M17.17 13.9a13.823 13.823 0 0 1 5.288-10.888C16.78-1.45 8.628-.8 3.73 4.504c-4.899 5.305-4.899 13.483 0 18.788 4.898 5.304 13.05 5.954 18.728 1.493A13.823 13.823 0 0 1 17.169 13.9z"/><path fill="#00A1DF" d="M44.858 13.9a13.846 13.846 0 0 1-22.4 10.885 13.846 13.846 0 0 0 0-21.773 13.846 13.846 0 0 1 22.404 10.884l-.004.004z"/><path fill="#000" d="M13.612 34.708V32.4a1.365 1.365 0 0 0-1.443-1.458 1.423 1.423 0 0 0-1.292.654 1.35 1.35 0 0 0-1.215-.654c-.43-.021-.84.186-1.077.546v-.453h-.8v3.673h.807v-2.035a.858.858 0 0 1 .9-.977c.531 0 .8.346.8.97v2.042h.808v-2.035a.865.865 0 0 1 .9-.977c.546 0 .808.346.808.97v2.042h.804zm4.5-1.835v-1.835h-.808v.447a1.392 1.392 0 0 0-1.154-.539 1.923 1.923 0 0 0 0 3.846 1.39 1.39 0 0 0 1.154-.538v.446h.8l.008-1.827zm-2.974 0a1.112 1.112 0 1 1 1.116 1.177 1.1 1.1 0 0 1-1.123-1.177h.007zm20.066-1.923c.263 0 .524.049.77.146.233.094.446.232.626.408.178.174.32.382.415.611a2.04 2.04 0 0 1 0 1.539 1.85 1.85 0 0 1-.415.611c-.18.176-.393.315-.627.408a2.177 2.177 0 0 1-1.577 0 1.877 1.877 0 0 1-1.035-1.02c-.2-.492-.2-1.044 0-1.538a1.877 1.877 0 0 1 1.035-1.019 2.07 2.07 0 0 1 .8-.158l.008.012zm0 .77a1.192 1.192 0 0 0-.458.084 1.08 1.08 0 0 0-.365.242c-.106.11-.189.241-.243.385a1.335 1.335 0 0 0 0 .954 1.077 1.077 0 0 0 .608.627c.293.114.619.114.912 0a1.1 1.1 0 0 0 .384-.243c.107-.11.19-.24.243-.384a1.335 1.335 0 0 0 0-.954 1.115 1.115 0 0 0-.243-.385 1.1 1.1 0 0 0-.384-.242 1.192 1.192 0 0 0-.462-.108l.008.023zm-12.746 1.153c0-1.154-.716-1.923-1.743-1.923a1.923 1.923 0 1 0 .054 3.846 2.23 2.23 0 0 0 1.504-.515l-.385-.593a1.75 1.75 0 0 1-1.069.385 1.02 1.02 0 0 1-1.1-.9h2.727c.012-.096.012-.192.012-.3zm-2.735-.323c.03-.507.457-.9.965-.888a.912.912 0 0 1 .931.892l-1.896-.004zm6.1-.577a2.365 2.365 0 0 0-1.154-.315c-.438 0-.7.161-.7.43 0 .27.277.316.623.362l.385.054c.8.115 1.285.454 1.285 1.1 0 .646-.616 1.2-1.674 1.2A2.65 2.65 0 0 1 23 34.327l.385-.623c.353.262.783.397 1.223.384.546 0 .838-.161.838-.446 0-.207-.208-.323-.646-.384l-.385-.054c-.823-.116-1.269-.485-1.269-1.085 0-.73.6-1.177 1.539-1.177a2.746 2.746 0 0 1 1.496.385l-.358.646zm3.846-.208h-1.304v1.658c0 .385.131.615.531.615.25-.008.493-.08.708-.207l.23.684a1.87 1.87 0 0 1-1 .285c-.946 0-1.276-.508-1.276-1.362v-1.673h-.746v-.73h.746v-1.116h.807v1.116h1.304v.73zm2.766-.823c.194.001.386.035.569.1l-.246.77a1.3 1.3 0 0 0-.5-.093c-.523 0-.77.339-.77.946v2.058h-.8V31.05h.793v.446c.2-.343.572-.55.969-.538l-.015-.016zm5.53 3.231a.385.385 0 0 1 .266.104.358.358 0 0 1-.12.592.362.362 0 0 1-.146.031.385.385 0 0 1-.346-.223.362.362 0 0 1 .081-.4.385.385 0 0 1 .246-.104h.02zm0 .65a.285.285 0 1 0-.204-.485c-.1.11-.1.276 0 .385a.285.285 0 0 0 .204.085v.015zm.023-.458a.154.154 0 0 1 .1.031c.024.02.037.05.035.08a.092.092 0 0 1-.027.07.135.135 0 0 1-.08.035l.11.127h-.088l-.103-.127H37.9v.127h-.073v-.354l.161.011zm-.084.066v.092h.084a.08.08 0 0 0 .047 0 .038.038 0 0 0 0-.035.038.038 0 0 0 0-.034.08.08 0 0 0-.047 0l-.084-.023z"/><path fill="#00A1DF" d="M43.538 22.477v-.431h.181v-.092h-.457v.092h.18v.446zm.889 0v-.539h-.139l-.161.385-.162-.385h-.142v.539h.1v-.404l.15.35h.104l.15-.35v.408l.1-.004z"/></g><g fill="none"><path fill="#231F20" d="M8.152 34.657V32.35a1.37 1.37 0 0 0-1.446-1.462 1.423 1.423 0 0 0-1.293.654 1.35 1.35 0 0 0-1.215-.654c-.43-.022-.84.186-1.077.546v-.453h-.8v3.676h.808v-2.023a.862.862 0 0 1 .9-.977c.53 0 .8.347.8.97v2.046h.808v-2.039a.865.865 0 0 1 .9-.977c.546 0 .807.347.807.97v2.046l.808-.016zm11.95-3.676h-1.315v-1.116h-.808v1.116h-.73v.73h.745v1.693c0 .853.331 1.361 1.277 1.361.354.001.7-.097 1-.284l-.23-.685c-.215.128-.459.2-.708.208-.385 0-.531-.247-.531-.616v-1.677h1.308l-.008-.73zm6.823-.093a1.085 1.085 0 0 0-.97.539v-.446h-.792v3.676h.8v-2.061c0-.608.262-.946.77-.946.17-.003.34.029.5.092l.246-.77a1.712 1.712 0 0 0-.57-.1l.016.016zm-10.315.385a2.75 2.75 0 0 0-1.5-.385c-.931 0-1.539.446-1.539 1.177 0 .6.446.97 1.27 1.085l.384.054c.438.061.646.177.646.384 0 .285-.292.446-.838.446-.44.013-.87-.122-1.223-.384l-.385.623a2.654 2.654 0 0 0 1.592.477c1.062 0 1.677-.5 1.677-1.2s-.484-.985-1.284-1.1l-.385-.054c-.346-.046-.623-.115-.623-.362 0-.246.261-.43.7-.43a2.37 2.37 0 0 1 1.154.315l.354-.646zm21.427-.385a1.085 1.085 0 0 0-.97.539v-.446h-.792v3.676h.8v-2.061c0-.608.262-.946.77-.946.17-.003.34.029.5.092l.245-.77a1.712 1.712 0 0 0-.569-.1l.016.016zm-10.308 1.923a1.858 1.858 0 0 0 1.961 1.923c.48.025.953-.132 1.323-.438l-.384-.646c-.277.21-.614.327-.962.33a1.18 1.18 0 0 1 0-2.353c.348.004.685.12.962.33l.384-.646a1.923 1.923 0 0 0-1.323-.438 1.858 1.858 0 0 0-1.961 1.923v.015zm7.492 0v-1.83h-.8v.446a1.396 1.396 0 0 0-1.154-.539 1.923 1.923 0 1 0 0 3.846c.45.017.879-.183 1.154-.538v.446h.8v-1.83zm-2.977 0a1.112 1.112 0 1 1 1.116 1.177 1.104 1.104 0 0 1-1.116-1.177zm-9.654-1.923a1.923 1.923 0 1 0 .054 3.846 2.235 2.235 0 0 0 1.527-.5l-.384-.592a1.75 1.75 0 0 1-1.07.385 1.02 1.02 0 0 1-1.1-.9h2.731v-.308c0-1.154-.715-1.923-1.746-1.923l-.012-.008zm0 .716a.912.912 0 0 1 .931.892h-1.923a.946.946 0 0 1 .977-.892h.015zm20.043 1.215v-3.315h-.77v1.923a1.396 1.396 0 0 0-1.153-.539 1.923 1.923 0 1 0 0 3.846c.448.017.878-.183 1.153-.538v.446h.77V32.82zm1.334 1.304a.385.385 0 0 1 .266.104.358.358 0 0 1-.12.592.362.362 0 0 1-.146.03.385.385 0 0 1-.346-.222.362.362 0 0 1 .08-.4.385.385 0 0 1 .278-.104h-.012zm0 .65c.076 0 .148-.03.2-.085.1-.109.1-.276 0-.384a.277.277 0 0 0-.311-.062.28.28 0 0 0-.093.062c-.1.108-.1.275 0 .384a.285.285 0 0 0 .093.062.28.28 0 0 0 .123.023h-.012zm.023-.458a.154.154 0 0 1 .1.03c.024.02.037.05.035.082a.092.092 0 0 1-.027.069.135.135 0 0 1-.08.035l.11.126h-.088l-.103-.126h-.035v.126h-.073v-.338l.161-.004zm-.084.066v.092h.084a.08.08 0 0 0 .047 0 .038.038 0 0 0 0-.035.038.038 0 0 0 0-.034.08.08 0 0 0-.047 0l-.084-.023zm-4.231-1.562a1.112 1.112 0 1 1 1.115 1.177 1.104 1.104 0 0 1-1.115-1.177zm-27.012 0v-1.838h-.8v.446a1.396 1.396 0 0 0-1.153-.539 1.923 1.923 0 1 0 0 3.846c.448.017.878-.183 1.153-.538v.446h.8V32.82zm-2.976 0a1.112 1.112 0 1 1 1.115 1.177 1.104 1.104 0 0 1-1.123-1.177h.008z"/><path fill="#FF5F00" d="M16.344 2.961H28.46v21.773H16.344z"/><path fill="#EB001B" d="M17.113 13.85a13.823 13.823 0 0 1 5.289-10.89C16.725-1.5 8.572-.85 3.674 4.454c-4.899 5.305-4.899 13.483 0 18.788 4.899 5.304 13.051 5.954 18.728 1.492a13.823 13.823 0 0 1-5.289-10.884z"/><path fill="#F79E1B" d="M44.806 13.85a13.846 13.846 0 0 1-22.404 10.884 13.846 13.846 0 0 0 0-21.773 13.846 13.846 0 0 1 22.404 10.885v.004zm-.896 8.038.162.828.162-.828h.138v1.159l-.08.008v-.877l-.15.753h-.105l-.15-.753v.869h-.1v-1.159h.123zm-.246 0v.199h-.181v.96h-.08v-.96h-.197v-.199h.458z"/></g><g fill="#83BA3B"><path d="M170.067 2.275C167.846.764 164.51 0 160.136 0H148.67l-4.265 23.15h-15.027l.967-5.253h9.052L140.472 12h-9.046l.967-5.23h9.325L142.954 0h-18.932l-4.05 21.958h-6.945L117.103 0h-9.898l-4.044 21.958H96.39L100.47 0h-9.89l-4.272 23.15H71.172l.958-5.253h9.086l1.076-5.864h-9.077l.951-5.25h9.446L84.832 0H25.834l-3.351 18.333L15.795 0H5.517L0 29.936h9.806l3.333-18.847 6.491 18.847h35.156l4.272-23.153h5.498l-4.277 23.153h92.47l2.682-14.616 4.339 14.616h9.81l-4.494-11.945 1.025-.214c2.264-.482 4.031-1.527 5.261-3.088 1.23-1.561 1.853-3.611 1.853-6.036.009-2.839-1.025-4.923-3.158-6.377v-.001zM46.25 23.15h-15l.97-5.253h9.416l1.07-5.917h-9.34l.9-5.197h15L46.25 23.15zm115.728-10.095c-.986.69-2.417 1.025-4.372 1.025h-1.945l1.486-8.033h1.428c1.625 0 2.809.262 3.626.795.638.414 1.388 1.238 1.388 2.8.022 1.892-.866 2.902-1.611 3.413zm15.68 14.948-.241-4.723 2.086-.108c.323-.029.649-.002.963.078.23.073.425.222.557.423.141.205.222.449.233.699a1.2 1.2 0 0 1-.278.861c-.26.275-.604.45-.978.5.138.053.267.125.386.214.21.176.397.378.556.603l.88 1.239-.777.042-.673-.95a7.802 7.802 0 0 0-.483-.626 1.447 1.447 0 0 0-.33-.3.967.967 0 0 0-.292-.111 2.223 2.223 0 0 0-.378-.01l-.722.035.108 2.092-.617.042zm.489-2.662 1.339-.068a2.01 2.01 0 0 0 .661-.123.686.686 0 0 0 .35-.303.77.77 0 0 0 .106-.428.697.697 0 0 0-.278-.536 1.11 1.11 0 0 0-.775-.178l-1.486.076.083 1.56z"/><path d="M179.04 21.141a4.4 4.4 0 1 0 .455 8.79 4.4 4.4 0 0 0-.456-8.79zm-3.423 4.581a3.653 3.653 0 1 1 7.294-.372v.186a3.653 3.653 0 0 1-7.3.186h.006z"/></g><path fill="url(#fa)" d="M61.857 7.068A3.535 3.535 0 0 0 61.86 0a3.534 3.534 0 1 0-.003 7.067v.001zm-27.07 1.906c-.16.4-1.308 3.643-4.084 7.004V1.608l-7.397 1.463v26.047h7.397v-8.051c2.143 3.214 3.2 8.051 3.2 8.051h8.86c-.877-3.643-4.71-10.362-4.71-10.362 3.44-4.363 4.952-9.011 5.192-9.78h-8.46l.001-.002zm19.447-.271c-6.626.212-9.99 3.185-9.99 9.094v11.32h7.23v-9.231c0-3.539.462-5.056 4.662-5.2v-5.88c-.707-.15-1.903-.103-1.903-.103h.001zm-43.335 3.14c-.906-.06-3.004-.196-3.004-2.084 0-2.28 3.02-2.28 4.153-2.28 1.992 0 4.571.59 6.413 1.14 0 0 1.029.363 1.903.734l.08.022v-6.24l-.11-.034c-2.175-.76-4.703-1.491-9.39-1.491C2.864 1.609 0 6.317 0 10.35c0 2.324.997 7.795 10.251 8.427.785.048 2.867.168 2.867 2.12 0 1.61-1.704 2.56-4.571 2.56-3.143 0-6.19-.801-8.042-1.56v6.427c2.772.726 5.895 1.09 9.557 1.09 7.901 0 11.44-4.454 11.44-8.87 0-5.005-3.96-8.257-10.603-8.702v.001zm47.375 17.274h7.17V8.997h-7.17v20.121-.001zm20.67-26.225v26.225h7.172V1.61l-7.171 1.283v-.001zm-10.463 0 7.164-1.283v27.509h-7.164V2.892z"/><g fill="none"><path fill="#FFF" d="M0 0h56.748v35H0z"/><path fill="#1A1F71" d="M0 0h56.748v5.223H0z"/><path fill="#F7B600" d="M0 29.777h56.748V35H0z"/><path fill="#1A1F71" d="M28.355 15.017c-.024 1.89 1.685 2.945 2.971 3.572 1.323.643 1.767 1.056 1.762 1.63-.01.882-1.055 1.27-2.033 1.285-1.706.027-2.697-.46-3.486-.829l-.614 2.876c.79.364 2.256.682 3.775.696 3.565 0 5.898-1.76 5.91-4.489.014-3.463-4.79-3.655-4.757-5.203.011-.47.46-.97 1.44-1.098.486-.064 1.828-.113 3.348.587l.597-2.782a9.098 9.098 0 0 0-3.177-.583c-3.356 0-5.717 1.784-5.736 4.338m14.647-4.133c-.651 0-1.2.38-1.445.962l-5.093 12.161h3.563l.709-1.959h4.354l.411 1.96h3.14l-2.74-13.124h-2.9m.5 4.65 1.027 4.928h-2.816l1.788-4.928m-19.465-4.65-2.808 13.123h3.395l2.807-13.123h-3.394m-5.022 0-3.534 8.932-1.43-7.595c-.167-.848-.83-1.337-1.565-1.337H6.707l-.081.38c1.186.258 2.533.673 3.35 1.117.5.272.642.509.806 1.153l2.707 10.473h3.588l5.501-13.123h-3.565"/></g><path fill="#FFF" d="M17.774.007c2.772 0 5.409.635 7.775 1.77.371.168.745.369 1.115.57L25.04 3.783l-2.432-2.507-4.192 3.676-2.468-2.64-7.708 6.85 4.935 5.38-1.926 1.671 4.868 5.38-1.927 1.67 6.964 7.653 4.122-3.743 3.585 4.011a20.07 20.07 0 0 1-2.332 1.538 17.825 17.825 0 0 1-8.722 2.27c-9.77 0-17.713-7.851-17.713-17.508C.061 7.894 8.005.007 17.774.007zm-3.246 16.408 4.226-3.743 3.787 4.177-4.227 3.743-3.786-4.177zm3.01 7.218 4.19-3.776 3.821 4.177-4.226 3.743-3.785-4.144zM11.522 9.297l4.224-3.743 3.786 4.177-4.226 3.743-3.784-4.177zm7.739-2.005 3.144-2.807 2.84 3.108-3.144 2.84-2.84-3.141zm5.612 12.865 3.143-2.807 2.84 3.14-3.144 2.81-2.839-3.143zm2.772 6.317 3.144-2.808 2.838 3.108-3.143 2.84-2.84-3.14zm1.284-14.437 2.096-1.872 1.892 2.073-2.095 1.87-1.893-2.071zm-2.704-6.182 2.096-1.905 1.894 2.105-2.098 1.872-1.892-2.072zM31.6 18.22l2.095-1.872 1.927 2.072-2.129 1.871L31.6 18.22zm-9.431-4.645 3.144-2.808 2.839 3.108-3.143 2.807-2.84-3.107z"/></symbol><symbol id="promo" viewBox="0 0 173 127"><g data-v-60abdccc="" fill-rule="evenodd"><path data-v-60abdccc="" fill-rule="nonzero" d="M42.6 126.3c-.41-4.95-.47-10.07-1.31-15.07C38.34 93.61 28.78 79.3 17.7 65.87c-3.62-4.38-6.37-9.49-13-10.94-4.33-.94-5.89-6.87-3.78-11s5.89-5.83 10.5-4.54a8.34 8.34 0 015.64 10.33 32.52 32.52 0 01-1.36 3.3c7.5 2.2 14.7 4.44 22 6.33 1.16.3 3.53-.53 3.94-1.46 2-4.44 3.51-9.1 5.13-13.52-7.26-5.34-8.82-9.49-5.71-14.27a8.89 8.89 0 0111.59-2.81c4.73 2.67 5.35 7.44 1.65 14.79l12.37 7.39 15.84-31.88c-6.09-6-7.09-11.43-2.89-15.47 3.13-3 9.44-2.78 12.39.46 3.86 4.25 2.9 9-3.14 14.78l15 29.21 11.33-6.85c-3.11-8.91-2-13.51 3.5-15.47a8.69 8.69 0 0110.93 4.66c2.13 5.11 0 9.14-7.25 12.65l5.81 16.45 14.12-5.23 13.32-4.9c0-1.8-.12-3.49 0-5.16.38-4.58 4.46-8.28 8.76-8.07a9.38 9.38 0 018.46 8.54c.14 4.52-3.39 8.9-8 8.57-3.43-.24-4.58 1.38-6 3.7-12.38 20.79-22 42.44-21.38 67.36.07 2.81-.84 4.16-3.9 4.15-29.66-.067-59.327-.1-89-.1a9.27 9.27 0 01-1.97-.57zm111.8-72.76c-13.56 5-26 9.35-38.18 14.18-4.31 1.72-6.47 1.52-8.71-3.11-6.82-14.12-14.23-28-21.78-42.62-6.65 13.47-13 26.2-19.22 38.95-5.18 10.56-5.13 10.5-16.63 7.08-10.07-3-20.18-5.82-31.54-9.09 1.46 1.86 2 2.6 2.6 3.31 10.44 12.45 19.71 25.68 23.56 41.71 1.24 5.14 3.37 6 8 5.94 16.92-.23 33.84-.08 50.76-.07h29.92c2.7-20.19 10.46-38.13 21.22-56.28zm-22 61.26H46.78l.64 7.21h85l-.02-7.21zM45.88 61.16c11.38 6.11 14.75 4.68 18.1-7.63l-12.61-7.37c-1.88 5.16-3.69 10.08-5.49 15zm77.9-1.46c-2.16-5.64-4.08-10.63-6-15.79l-11.61 7.12 6.5 12.68 11.11-4.01zm-75.2-30.24c-1.87 2.4-3.78 3.81-3.88 5.34-.08 1.18 2.35 3.68 3.26 3.51a5.87 5.87 0 003.86-3.58c.3-1.08-1.6-2.76-3.24-5.27zm-35 18.27c-1.94-1.8-3.44-4.08-4.37-3.86-1.58.37-2.8 2.29-4.17 3.56 1.29 1.34 2.39 3.32 3.94 3.77.96.28 2.59-1.84 4.63-3.47h-.03zm72.24-34.39c1.63-2.05 3.82-3.74 3.54-4.7-.46-1.55-2.55-2.62-3.95-3.88-1.21 1.41-3.14 2.71-3.4 4.29-.14 1.02 2.11 2.49 3.84 4.29h-.03zm35.66 13.8c-1.62 2.4-3.39 3.86-3.24 5.08.17 1.41 2.05 2.61 3.18 3.9 1.28-1.35 3.2-2.53 3.6-4.1.28-.99-1.74-2.56-3.51-4.88h-.03zm42.5 11c-1.66 2.53-3.34 4-3.33 5.44 0 1.16 2.37 3.44 3.14 3.23a6 6 0 003.8-3.5c.31-.94-1.69-2.56-3.58-5.13l-.03-.04z" fill="#fff"/> <path data-v-60abdccc="" fill-rule="nonzero" d="M87.36 104.04a20 20 0 01-20.42-19.85c-.047-11.233 9.022-20.378 20.255-20.425 11.233-.047 20.378 9.022 20.425 20.255a20 20 0 01-20.26 20.02zm15.17-20.14a15.27 15.27 0 00-15.6-15.25c-8.16.26-15.21 7.34-15.29 15.35-.08 8.21 7.32 15.51 15.67 15.46a15 15 0 0015.22-15.56z" fill="#fff"/> <path data-v-60abdccc="" d="M74.78 83.76c.12-6.67 5.64-12.22 11.15-12.06 1.18 0 2.33 1.32 3.48 2-.81.89-1.54 2.42-2.47 2.56-4.56.69-7.14 3-7.76 7.66-.12.89-1.75 1.58-2.69 2.36l-1.71-2.52z" fill="#fff"/></g></symbol><symbol id="search"><path data-v-16669cf4="" d="M9.819 5.43A4.374 4.374 0 005.44 1.05a4.379 4.379 0 104.379 4.38zM5.44 10.874a5.445 5.445 0 110-10.891 5.445 5.445 0 010 10.89zm3.063-1.618l.754-.754 1.472 1.472-.754.754-1.472-1.472zm.754-.754l1.472 1.472-.754.754-1.472-1.472.754-.754z" fill="#ffff00"/> <path data-v-16669cf4="" d="M14.284 14.996l.72-.72-3.911-3.91-.72.72 3.911 3.91zm-3.191-6.14l5.42 5.419-2.228 2.23-5.42-5.42 2.228-2.228z" fill="#ffff00"/></symbol><symbol id="search2" viewBox="0 0 25 27"><path data-v-60abdccc="" fill-rule="evenodd" clip-rule="evenodd" d="M17.3906 3.86284C13.4121 -0.155452 6.9622 -0.155452 2.98369 3.86284C-0.994818 7.88113 -0.994818 14.3956 2.98369 18.4139C6.9622 22.4321 13.4121 22.4321 17.3906 18.4139C21.3691 14.3956 21.3691 7.88086 17.3906 3.86284ZM16.2532 17.2651C12.9029 20.6487 7.4713 20.6487 4.12099 17.2651C0.77095 13.8811 0.77095 8.39542 4.12099 5.01161C7.47103 1.6278 12.9029 1.62807 16.2532 5.01161C19.6032 8.39515 19.6032 13.8813 16.2532 17.2651Z" fill="white"/> <path data-v-60abdccc="" fill-rule="evenodd" clip-rule="evenodd" d="M19.2871 18.0305L17.0094 20.3251L22.676 26.0673L24.9537 23.7727L19.2871 18.0305Z" fill="white"/></symbol></svg>